<?xml version="1.0" encoding="utf-8"?>
<!-- Generator: Adobe Illustrator 19.2.1, SVG Export Plug-In . SVG Version: 6.00 Build 0)  -->
<svg version="1.1" id="layer" xmlns="http://www.w3.org/2000/svg" xmlns:xlink="http://www.w3.org/1999/xlink" x="0px" y="0px"
	 viewBox="0 0 652 652" style="enable-background:new 0 0 652 652;" xml:space="preserve">
<path d="M58.3,457.8h-5c-0.5,0-1-0.3-1.2-0.8l-30.5-71.6c-0.3-0.7,0.1-1.2,0.8-1.2h9.7c0.5,0,0.9,0.2,1.1,0.8l21.8,53.6
	c0.3,0.8,1,0.8,1.5,0L78.3,385c0.3-0.6,0.6-0.8,1.1-0.8h9.8c0.7,0,1,0.5,0.7,1.2l-30.5,71.7C59.3,457.6,58.9,457.8,58.3,457.8
	L58.3,457.8z M166.1,448.3v8.5c0,0.6-0.4,1-1,1h-42.4c-0.6,0-1-0.4-1-1v-71.6c0-0.6,0.4-1,1-1H164c0.6,0,1,0.4,1,1v8.5
	c0,0.6-0.4,1-1,1h-29.5c-0.6,0-1,0.4-1,1v19.7c0,0.6,0.4,1,1,1h21.3c0.6,0,1,0.4,1,1v8.5c0,0.6-0.4,1-1,1h-21.3c-0.6,0-1,0.4-1,1
	v18.2c0,0.6,0.4,1,1,1H165C165.7,447.3,166.1,447.7,166.1,448.3L166.1,448.3z M262.4,457.8h-6.5c-0.5,0-0.9-0.2-1.2-0.6l-37.6-49.4
	c-0.6-0.9-1.2-0.4-1.2,0.5v48.4c0,0.6-0.4,1-1,1h-9.7c-0.6,0-1-0.4-1-1v-71.6c0-0.6,0.4-1,1-1h6.5c0.5,0,0.9,0.2,1.2,0.6l37.6,49.4
	c0.7,0.8,1.2,0.4,1.2-0.5v-48.5c0-0.6,0.4-1,1-1h9.7c0.6,0,1,0.4,1,1v71.6C263.5,457.4,263.1,457.8,262.4,457.8z M349.3,385.2v8.5
	c0,0.6-0.4,1-1,1h-18.1c-0.6,0-1,0.4-1,1v61.1c0,0.6-0.4,1-1,1h-9.6c-0.6,0-1-0.4-1-1v-61.1c0-0.6-0.4-1-1-1h-18.2c-0.6,0-1-0.4-1-1
	v-8.5c0-0.6,0.4-1,1-1h50C348.9,384.2,349.3,384.6,349.3,385.2z M436.8,384.2h9.7c0.6,0,1,0.4,1,1v40.9c0,13.8-5.7,32-30.9,32
	c-25.4,0-31.1-18.2-31.1-32v-40.9c0-0.6,0.4-1,1-1h9.7c0.6,0,1,0.4,1,1v40.9c0,14.6,6.9,21.5,19.3,21.5c12.1,0,18.9-6.9,19.1-21.5
	v-40.9C435.8,384.6,436.2,384.2,436.8,384.2z M485.6,456.8v-71.6c0-0.6,0.4-1,1-1h28.5c14.8,0,25.9,9.9,25.9,24.9
	c0,10.6-5.8,17.7-13,21.8c-0.5,0.2-0.6,0.9-0.3,1.5l12.7,24.3c0.4,0.7,0,1.2-0.7,1.2h-10.5c-0.5,0-0.9-0.2-1.2-0.7l-11.5-22.5
	c-0.3-0.5-0.7-0.7-1.2-0.7h-16.8c-0.6,0-1,0.4-1,1v21.9c0,0.6-0.4,1-1,1h-9.7C486,457.8,485.6,457.4,485.6,456.8L485.6,456.8z
	 M515.2,423.3c6.2,0,14-4.7,14-14.3c0-9.9-7.2-14.3-15.4-14.3h-15.5c-0.6,0-1,0.4-1,1v26.6c0,0.6,0.4,1,1,1L515.2,423.3L515.2,423.3
	z M621.6,448.3v8.5c0,0.6-0.4,1-1,1h-42.3c-0.6,0-1-0.4-1-1v-71.6c0-0.6,0.4-1,1-1h41.3c0.6,0,1,0.4,1,1v8.5c0,0.6-0.4,1-1,1H590
	c-0.6,0-1,0.4-1,1v19.7c0,0.6,0.4,1,1,1h21.3c0.6,0,1,0.4,1,1v8.5c0,0.6-0.4,1-1,1H590c-0.6,0-1,0.4-1,1v18.2c0,0.6,0.4,1,1,1h30.6
	C621.2,447.3,621.6,447.7,621.6,448.3L621.6,448.3z M302.1,280.1l19.7,23.3l19.7-23.3l-19.7-23.3L302.1,280.1L302.1,280.1z
	 M331.4,280.3l-9.6,11.3l-9.6-11.3l9.6-11.3L331.4,280.3z M355.1,184.4L321.8,224l-33.3-39.6H194l127.8,152l127.5-152H355.1
	L355.1,184.4z M404,205.5H365l-34.3,41l28.3,33.8l-37.1,44.1L210.5,192.1h74.3l31.9,37.9l-8.9,10.5l-29.2-35h-39.1l53.9,64.3
	l65.2-77.7H433l-69,82.2l-8.9-10.5L404,205.5L404,205.5z M350.1,257.8l-9.6-11.3l28.1-33.3h19.2L350.1,257.8L350.1,257.8z
	 M302.8,246.5l-9.6,11.3l-37.7-44.6h19.2L302.8,246.5L302.8,246.5z"/>
</svg>
